<?xml version="1.0" encoding="UTF-8" standalone="no" ?>
<!DOCTYPE svg PUBLIC "-//W3C//DTD SVG 1.1//EN" "http://www.w3.org/Graphics/SVG/1.1/DTD/svg11.dtd">
<svg xmlns="http://www.w3.org/2000/svg" xmlns:xlink="http://www.w3.org/1999/xlink" version="1.1" width="1080" height="1080" viewBox="0 0 1080 1080" xml:space="preserve">
<desc>Created with Fabric.js 5.2.4</desc>
<defs>
</defs>
<g transform="matrix(1 0 0 1 540 540)" id="19d60a19-90af-4c02-94db-190b7511f39c"  >
<rect style="stroke: none; stroke-width: 1; stroke-dasharray: none; stroke-linecap: butt; stroke-dashoffset: 0; stroke-linejoin: miter; stroke-miterlimit: 4; fill: rgb(255,255,255); fill-rule: nonzero; opacity: 1; visibility: hidden;" vector-effect="non-scaling-stroke"  x="-540" y="-540" rx="0" ry="0" width="1080" height="1080" />
</g>
<g transform="matrix(1 0 0 1 540 540)" id="11b72d93-f318-4ccc-b6d4-0328fbef21ea"  >
</g>
<g transform="matrix(3.75 0 0 3.75 540 540)"  >
<g style=""   >
		<g transform="matrix(1 0 0 1 -124.5 0.26)"  >
<path style="stroke: none; stroke-width: 1; stroke-dasharray: none; stroke-linecap: butt; stroke-dashoffset: 0; stroke-linejoin: miter; stroke-miterlimit: 4; fill: rgb(102,102,102); fill-rule: evenodd; opacity: 1;" vector-effect="non-scaling-stroke"  transform=" translate(-19.5, -22.76)" d="M 7.64565 1.18766 C 5.72885 1.7027 5.24606 1.97117 3.7297 3.3665 C 2.26308 4.7161 1.00723 7.0526 0.426085 9.51392 C -0.245542 12.3565 -0.106439 18.2823 0.725366 22.2806 L 0.856601 22.9118 L 7.17411 22.9118 L 13.4916 22.9118 L 13.4916 19.8134 C 13.4916 16.8976 13.5324 16.674 14.1815 16.0263 C 14.861 15.3477 14.9439 15.3376 19.7639 15.3376 C 24.2879 15.3376 24.7123 15.3814 25.3968 15.9192 C 26.1196 16.4867 26.1373 16.577 26.1373 19.7062 L 26.1373 22.9118 L 32.1378 22.9118 L 38.1386 22.9118 L 38.4843 20.878 C 39.0843 17.3496 39.175 12.366 38.6813 10.0559 C 37.7778 5.82726 36.0504 3.33957 32.9651 1.82333 C 29.8352 0.28521 25.1507 0.439499 22.3161 2.17427 C 18.5491 4.47962 13.2713 4.96437 9.85893 3.31881 C 8.72588 2.77235 8.57076 2.45647 9.08782 1.75039 C 9.45764 1.24545 9.52199 1.24797 11.2539 1.83174 C 13.0886 2.4503 16.1363 2.64723 16.4338 2.16669 C 16.5246 2.01998 15.76 1.64127 14.7345 1.32512 C 12.5581 0.6541 9.82886 0.601081 7.64565 1.18766 Z M 15.4587 21.0814 L 15.4587 24.8755 L 8.43334 24.8755 C 1.66536 24.8755 1.40795 24.8954 1.40795 25.4203 C 1.40795 26.3841 3.37478 32.4901 4.78773 35.9119 C 6.33696 39.6645 8.30267 42.9946 9.62316 44.1035 C 10.3611 44.7235 10.7039 44.8259 11.6271 44.7024 C 12.2394 44.6205 13.0676 44.3173 13.4672 44.0289 C 14.6761 43.1567 15.9117 40.3563 16.4347 37.3025 C 17.6858 29.9998 18.1604 28.4031 19.176 28.0813 C 19.8302 27.874 20.497 28.407 20.9568 29.505 C 21.1507 29.9681 21.647 32.5462 22.0592 35.2339 C 23.1813 42.5452 24.1132 44.4166 26.7817 44.717 C 27.9181 44.8447 28.1345 44.7642 29.1756 43.825 C 30.5169 42.6156 32.4498 39.4322 33.9734 35.9234 C 35.0964 33.3375 37.2582 26.9424 37.4237 25.7171 L 37.5184 25.0157 L 30.993 24.9406 L 24.4675 24.8651 L 24.3891 21.1535 L 24.3107 17.4416 L 19.8847 17.3644 L 15.4587 17.287 L 15.4587 21.0814 Z" stroke-linecap="round" />
</g>
		<g transform="matrix(1 0 0 1 27.86 -9.01)"  >
<path style="stroke: none; stroke-width: 1; stroke-dasharray: none; stroke-linecap: butt; stroke-dashoffset: 0; stroke-linejoin: miter; stroke-miterlimit: 4; fill: rgb(54,54,54); fill-rule: nonzero; opacity: 1;" vector-effect="non-scaling-stroke"  transform=" translate(-171.86, -13.49)" d="M 57.2835 18.7642 L 57.2835 8.34186 L 59.9148 8.34186 L 59.9148 18.7642 L 57.2835 18.7642 Z M 63.6633 18.7642 L 63.6633 8.34186 L 66.2946 8.34186 L 66.2946 18.7642 L 63.6633 18.7642 Z M 58.7829 14.5306 L 58.7829 12.3256 L 64.6188 12.3256 L 64.6188 14.5306 L 58.7829 14.5306 Z M 71.3405 18.9112 C 70.6741 18.9112 70.0812 18.7495 69.5618 18.4261 C 69.0424 18.1027 68.6357 17.6617 68.3417 17.1031 C 68.0477 16.5347 67.9007 15.8928 67.9007 15.1774 C 67.9007 14.4522 68.0477 13.8054 68.3417 13.237 C 68.6357 12.6686 69.0424 12.2276 69.5618 11.914 C 70.0812 11.5906 70.6741 11.4289 71.3405 11.4289 C 71.7913 11.4289 72.2029 11.5122 72.5753 11.6788 C 72.9477 11.8356 73.2515 12.061 73.4867 12.355 C 73.7317 12.649 73.8787 12.9822 73.9277 13.3546 L 73.9277 16.9708 C 73.8787 17.353 73.7317 17.6911 73.4867 17.9851 C 73.2515 18.2693 72.9477 18.4947 72.5753 18.6613 C 72.2029 18.8279 71.7913 18.9112 71.3405 18.9112 Z M 71.8844 16.6327 C 72.3058 16.6327 72.6439 16.4955 72.8987 16.2211 C 73.1633 15.9467 73.2956 15.5939 73.2956 15.1627 C 73.2956 14.8785 73.2368 14.6286 73.1192 14.413 C 73.0016 14.1974 72.835 14.0259 72.6194 13.8985 C 72.4136 13.7711 72.1735 13.7074 71.8991 13.7074 C 71.6247 13.7074 71.3797 13.7711 71.1641 13.8985 C 70.9583 14.0259 70.7917 14.2023 70.6643 14.4277 C 70.5467 14.6433 70.4879 14.8883 70.4879 15.1627 C 70.4879 15.4469 70.5467 15.7017 70.6643 15.9271 C 70.7819 16.1427 70.9485 16.3142 71.1641 16.4416 C 71.3797 16.569 71.6198 16.6327 71.8844 16.6327 Z M 73.1927 18.7642 L 73.1927 16.8385 L 73.5602 15.0745 L 73.1927 13.3399 L 73.1927 11.5759 L 75.7064 11.5759 L 75.7064 18.7642 L 73.1927 18.7642 Z M 77.5518 18.7642 L 77.5518 11.5759 L 80.1243 11.5759 L 80.1243 18.7642 L 77.5518 18.7642 Z M 78.8307 10.738 C 78.4485 10.738 78.13 10.6106 77.8752 10.3558 C 77.6204 10.0912 77.493 9.76286 77.493 9.37086 C 77.493 8.98866 77.6204 8.66526 77.8752 8.40066 C 78.13 8.13606 78.4485 8.00376 78.8307 8.00376 C 79.2325 8.00376 79.5559 8.13606 79.8009 8.40066 C 80.0557 8.66526 80.1831 8.98866 80.1831 9.37086 C 80.1831 9.76286 80.0557 10.0912 79.8009 10.3558 C 79.5559 10.6106 79.2325 10.738 78.8307 10.738 Z M 81.9823 18.7642 L 81.9823 11.5759 L 84.5401 11.5759 L 84.5401 18.7642 L 81.9823 18.7642 Z M 86.4952 18.7642 L 86.4952 14.6041 C 86.4952 14.3003 86.4021 14.0651 86.2159 13.8985 C 86.0297 13.7221 85.7994 13.6339 85.525 13.6339 C 85.329 13.6339 85.1575 13.6731 85.0105 13.7515 C 84.8635 13.8299 84.7459 13.9426 84.6577 14.0896 C 84.5793 14.2268 84.5401 14.3983 84.5401 14.6041 L 83.5405 14.2072 C 83.5405 13.629 83.6679 13.1341 83.9227 12.7225 C 84.1775 12.3109 84.5205 11.9924 84.9517 11.767 C 85.3829 11.5416 85.8729 11.4289 86.4217 11.4289 C 86.9117 11.4289 87.3527 11.5465 87.7447 11.7817 C 88.1465 12.0071 88.465 12.3256 88.7002 12.7372 C 88.9354 13.1488 89.053 13.6339 89.053 14.1925 L 89.053 18.7642 L 86.4952 18.7642 Z M 91.0081 18.7642 L 91.0081 14.6041 C 91.0081 14.3003 90.915 14.0651 90.7288 13.8985 C 90.5426 13.7221 90.3123 13.6339 90.0379 13.6339 C 89.8517 13.6339 89.6802 13.6731 89.5234 13.7515 C 89.3764 13.8299 89.2588 13.9426 89.1706 14.0896 C 89.0922 14.2268 89.053 14.3983 89.053 14.6041 L 87.5536 14.5306 C 87.5732 13.8838 87.7153 13.3301 87.9799 12.8695 C 88.2445 12.4089 88.6071 12.0561 89.0677 11.8111 C 89.5381 11.5563 90.0673 11.4289 90.6553 11.4289 C 91.2139 11.4289 91.7137 11.5465 92.1547 11.7817 C 92.5957 12.0169 92.9387 12.3599 93.1837 12.8107 C 93.4385 13.2517 93.5659 13.7809 93.5659 14.3983 L 93.5659 18.7642 L 91.0081 18.7642 Z M 98.2685 18.9112 C 97.6021 18.9112 97.0092 18.7495 96.4898 18.4261 C 95.9704 18.1027 95.5637 17.6617 95.2697 17.1031 C 94.9757 16.5347 94.8287 15.8928 94.8287 15.1774 C 94.8287 14.4522 94.9757 13.8054 95.2697 13.237 C 95.5637 12.6686 95.9704 12.2276 96.4898 11.914 C 97.0092 11.5906 97.6021 11.4289 98.2685 11.4289 C 98.7193 11.4289 99.1309 11.5122 99.5033 11.6788 C 99.8757 11.8356 100.18 12.061 100.415 12.355 C 100.66 12.649 100.807 12.9822 100.856 13.3546 L 100.856 16.9708 C 100.807 17.353 100.66 17.6911 100.415 17.9851 C 100.18 18.2693 99.8757 18.4947 99.5033 18.6613 C 99.1309 18.8279 98.7193 18.9112 98.2685 18.9112 Z M 98.8124 16.6327 C 99.2338 16.6327 99.5719 16.4955 99.8267 16.2211 C 100.091 15.9467 100.224 15.5939 100.224 15.1627 C 100.224 14.8785 100.165 14.6286 100.047 14.413 C 99.9296 14.1974 99.763 14.0259 99.5474 13.8985 C 99.3416 13.7711 99.1015 13.7074 98.8271 13.7074 C 98.5527 13.7074 98.3077 13.7711 98.0921 13.8985 C 97.8863 14.0259 97.7197 14.2023 97.5923 14.4277 C 97.4747 14.6433 97.4159 14.8883 97.4159 15.1627 C 97.4159 15.4469 97.4747 15.7017 97.5923 15.9271 C 97.7099 16.1427 97.8765 16.3142 98.0921 16.4416 C 98.3077 16.569 98.5478 16.6327 98.8124 16.6327 Z M 100.121 18.7642 L 100.121 16.8385 L 100.488 15.0745 L 100.121 13.3399 L 100.121 11.5759 L 102.634 11.5759 L 102.634 18.7642 L 100.121 18.7642 Z M 109.154 18.7642 L 109.154 14.707 C 109.154 14.3738 109.056 14.1141 108.86 13.9279 C 108.664 13.7319 108.415 13.6339 108.111 13.6339 C 107.905 13.6339 107.719 13.678 107.552 13.7662 C 107.395 13.8544 107.273 13.9769 107.185 14.1337 C 107.096 14.2905 107.052 14.4816 107.052 14.707 L 106.053 14.2366 C 106.053 13.6584 106.18 13.1635 106.435 12.7519 C 106.69 12.3305 107.038 12.0071 107.479 11.7817 C 107.929 11.5465 108.439 11.4289 109.007 11.4289 C 109.527 11.4289 109.987 11.5514 110.389 11.7964 C 110.801 12.0316 111.124 12.3501 111.359 12.7519 C 111.595 13.1537 111.712 13.6094 111.712 14.119 L 111.712 18.7642 L 109.154 18.7642 Z M 104.495 18.7642 L 104.495 11.5759 L 107.052 11.5759 L 107.052 18.7642 L 104.495 18.7642 Z M 116.975 18.9259 C 116.201 18.9259 115.51 18.7642 114.902 18.4408 C 114.304 18.1076 113.829 17.6568 113.476 17.0884 C 113.124 16.5102 112.947 15.8634 112.947 15.148 C 112.947 14.4326 113.119 13.7956 113.462 13.237 C 113.814 12.6686 114.295 12.2227 114.902 11.8993 C 115.51 11.5661 116.196 11.3995 116.96 11.3995 C 117.725 11.3995 118.406 11.5661 119.004 11.8993 C 119.611 12.2227 120.091 12.6686 120.444 13.237 C 120.797 13.7956 120.973 14.4326 120.973 15.148 C 120.973 15.8634 120.797 16.5102 120.444 17.0884 C 120.101 17.6568 119.626 18.1076 119.018 18.4408 C 118.42 18.7642 117.739 18.9259 116.975 18.9259 Z M 116.96 16.6474 C 117.244 16.6474 117.489 16.5886 117.695 16.471 C 117.911 16.3436 118.077 16.1672 118.195 15.9418 C 118.313 15.7164 118.371 15.4567 118.371 15.1627 C 118.371 14.8687 118.308 14.6139 118.18 14.3983 C 118.063 14.1729 117.901 14.0014 117.695 13.8838 C 117.489 13.7564 117.244 13.6927 116.96 13.6927 C 116.686 13.6927 116.441 13.7564 116.225 13.8838 C 116.01 14.0112 115.843 14.1876 115.725 14.413 C 115.608 14.6286 115.549 14.8834 115.549 15.1774 C 115.549 15.4616 115.608 15.7164 115.725 15.9418 C 115.843 16.1672 116.01 16.3436 116.225 16.471 C 116.441 16.5886 116.686 16.6474 116.96 16.6474 Z M 123.226 18.7642 L 123.226 8.60646 L 125.783 8.60646 L 125.783 18.7642 L 123.226 18.7642 Z M 121.638 13.7074 L 121.638 11.5759 L 127.371 11.5759 L 127.371 13.7074 L 121.638 13.7074 Z M 134.193 18.7642 L 134.193 8.41536 L 136.825 8.41536 L 136.825 18.7642 L 134.193 18.7642 Z M 131.003 10.6057 L 131.003 8.34186 L 140.015 8.34186 L 140.015 10.6057 L 131.003 10.6057 Z M 140.01 18.7642 L 140.01 11.5759 L 142.568 11.5759 L 142.568 18.7642 L 140.01 18.7642 Z M 142.568 14.854 L 141.421 13.8838 C 141.705 13.0704 142.083 12.4579 142.553 12.0463 C 143.023 11.6347 143.636 11.4289 144.391 11.4289 C 144.734 11.4289 145.028 11.473 145.273 11.5612 C 145.527 11.6494 145.743 11.7866 145.919 11.9728 L 144.435 13.9573 C 144.356 13.8691 144.244 13.8005 144.097 13.7515 C 143.959 13.6927 143.803 13.6633 143.626 13.6633 C 143.293 13.6633 143.033 13.7662 142.847 13.972 C 142.661 14.168 142.568 14.462 142.568 14.854 Z M 146.765 18.7642 L 146.765 11.5759 L 149.338 11.5759 L 149.338 18.7642 L 146.765 18.7642 Z M 148.044 10.738 C 147.662 10.738 147.343 10.6106 147.089 10.3558 C 146.834 10.0912 146.706 9.76286 146.706 9.37086 C 146.706 8.98866 146.834 8.66526 147.089 8.40066 C 147.343 8.13606 147.662 8.00376 148.044 8.00376 C 148.446 8.00376 148.769 8.13606 149.014 8.40066 C 149.269 8.66526 149.397 8.98866 149.397 9.37086 C 149.397 9.76286 149.269 10.0912 149.014 10.3558 C 148.769 10.6106 148.446 10.738 148.044 10.738 Z M 153.93 18.97 C 153.489 18.97 153.053 18.9112 152.622 18.7936 C 152.2 18.676 151.803 18.5192 151.431 18.3232 C 151.068 18.1174 150.76 17.8822 150.505 17.6176 L 151.901 16.1917 C 152.137 16.4367 152.416 16.6278 152.739 16.765 C 153.072 16.9022 153.425 16.9708 153.798 16.9708 C 154.013 16.9708 154.175 16.9414 154.283 16.8826 C 154.4 16.8238 154.459 16.7405 154.459 16.6327 C 154.459 16.4759 154.376 16.3583 154.209 16.2799 C 154.052 16.1917 153.842 16.1182 153.577 16.0594 C 153.322 15.9908 153.053 15.9124 152.769 15.8242 C 152.484 15.7262 152.21 15.5988 151.945 15.442 C 151.681 15.2852 151.465 15.0647 151.299 14.7805 C 151.142 14.4963 151.063 14.1337 151.063 13.6927 C 151.063 13.2321 151.186 12.8303 151.431 12.4873 C 151.686 12.1345 152.039 11.8601 152.489 11.6641 C 152.94 11.4583 153.469 11.3554 154.077 11.3554 C 154.694 11.3554 155.282 11.4632 155.841 11.6788 C 156.4 11.8846 156.85 12.1982 157.193 12.6196 L 155.782 14.0455 C 155.547 13.7809 155.287 13.5996 155.003 13.5016 C 154.719 13.3938 154.459 13.3399 154.224 13.3399 C 153.999 13.3399 153.837 13.3742 153.739 13.4428 C 153.641 13.5016 153.592 13.5849 153.592 13.6927 C 153.592 13.8201 153.67 13.923 153.827 14.0014 C 153.994 14.0798 154.204 14.1533 154.459 14.2219 C 154.724 14.2807 154.993 14.3591 155.268 14.4571 C 155.552 14.5551 155.821 14.6923 156.076 14.8687 C 156.341 15.0353 156.551 15.2607 156.708 15.5449 C 156.875 15.8291 156.958 16.1966 156.958 16.6474 C 156.958 17.3628 156.684 17.9312 156.135 18.3526 C 155.586 18.7642 154.851 18.97 153.93 18.97 Z M 162.04 18.9259 C 161.276 18.9259 160.585 18.7642 159.967 18.4408 C 159.36 18.1174 158.879 17.6715 158.527 17.1031 C 158.174 16.5347 157.997 15.8928 157.997 15.1774 C 157.997 14.4522 158.174 13.8054 158.527 13.237 C 158.889 12.6686 159.374 12.2227 159.982 11.8993 C 160.599 11.5661 161.295 11.3995 162.069 11.3995 C 162.628 11.3995 163.138 11.4926 163.598 11.6788 C 164.059 11.865 164.48 12.1443 164.862 12.5167 L 163.245 14.1337 C 163.098 13.9867 162.927 13.8789 162.731 13.8103 C 162.545 13.7319 162.324 13.6927 162.069 13.6927 C 161.795 13.6927 161.545 13.7564 161.32 13.8838 C 161.104 14.0014 160.928 14.168 160.79 14.3836 C 160.663 14.5992 160.599 14.8589 160.599 15.1627 C 160.599 15.4567 160.663 15.7164 160.79 15.9418 C 160.928 16.1574 161.104 16.3289 161.32 16.4563 C 161.545 16.5837 161.795 16.6474 162.069 16.6474 C 162.344 16.6474 162.579 16.6033 162.775 16.5151 C 162.971 16.4269 163.142 16.2995 163.289 16.1329 L 164.921 17.7499 C 164.519 18.1419 164.083 18.4359 163.613 18.6319 C 163.152 18.8279 162.628 18.9259 162.04 18.9259 Z M 170.874 18.7642 L 170.874 14.707 C 170.874 14.3738 170.776 14.1141 170.58 13.9279 C 170.384 13.7319 170.134 13.6339 169.831 13.6339 C 169.625 13.6339 169.439 13.678 169.272 13.7662 C 169.115 13.8544 168.993 13.9769 168.905 14.1337 C 168.816 14.2905 168.772 14.4816 168.772 14.707 L 167.773 14.2366 C 167.773 13.6584 167.89 13.1635 168.125 12.7519 C 168.37 12.3305 168.704 12.0071 169.125 11.7817 C 169.546 11.5465 170.036 11.4289 170.595 11.4289 C 171.173 11.4289 171.673 11.5465 172.094 11.7817 C 172.526 12.0071 172.854 12.3207 173.079 12.7225 C 173.315 13.1243 173.432 13.5898 173.432 14.119 L 173.432 18.7642 L 170.874 18.7642 Z M 166.214 18.7642 L 166.214 8.04786 L 168.772 8.04786 L 168.772 18.7642 L 166.214 18.7642 Z M 178.445 18.9259 C 177.769 18.9259 177.166 18.7936 176.637 18.529 C 176.117 18.2546 175.706 17.8773 175.402 17.3971 C 175.108 16.9071 174.961 16.3534 174.961 15.736 L 174.961 11.5759 L 177.519 11.5759 L 177.519 15.736 C 177.519 15.932 177.558 16.1035 177.636 16.2505 C 177.715 16.3975 177.823 16.5102 177.96 16.5886 C 178.097 16.667 178.259 16.7062 178.445 16.7062 C 178.719 16.7062 178.94 16.618 179.106 16.4416 C 179.283 16.2652 179.371 16.03 179.371 15.736 L 179.371 11.5759 L 181.929 11.5759 L 181.929 15.736 C 181.929 16.3632 181.782 16.9169 181.488 17.3971 C 181.194 17.8773 180.782 18.2546 180.253 18.529 C 179.734 18.7936 179.131 18.9259 178.445 18.9259 Z M 188.218 18.7642 L 185.954 15.001 L 188.203 11.5759 L 191.011 11.5759 L 188.218 15.442 L 188.291 14.5012 L 191.158 18.7642 L 188.218 18.7642 Z M 183.602 18.7642 L 183.602 8.04786 L 186.16 8.04786 L 186.16 18.7642 L 183.602 18.7642 Z M 197.288 18.7642 L 197.288 16.5004 L 199.787 16.5004 C 200.375 16.5004 200.885 16.3877 201.316 16.1623 C 201.757 15.9369 202.095 15.6037 202.33 15.1627 C 202.565 14.7119 202.683 14.168 202.683 13.531 C 202.683 12.9038 202.561 12.3746 202.316 11.9434 C 202.08 11.5024 201.747 11.1692 201.316 10.9438 C 200.885 10.7184 200.375 10.6057 199.787 10.6057 L 197.171 10.6057 L 197.171 8.34186 L 199.802 8.34186 C 200.605 8.34186 201.345 8.46926 202.022 8.72406 C 202.698 8.96906 203.286 9.32186 203.786 9.78246 C 204.285 10.2431 204.672 10.7919 204.947 11.4289 C 205.231 12.0659 205.373 12.7715 205.373 13.5457 C 205.373 14.3297 205.231 15.0402 204.947 15.6772 C 204.672 16.3142 204.285 16.863 203.786 17.3236 C 203.286 17.7842 202.698 18.1419 202.022 18.3967 C 201.355 18.6417 200.625 18.7642 199.831 18.7642 L 197.288 18.7642 Z M 195.509 18.7642 L 195.509 8.34186 L 198.141 8.34186 L 198.141 18.7642 L 195.509 18.7642 Z M 210.514 18.9259 C 209.711 18.9259 209 18.7691 208.383 18.4555 C 207.765 18.1321 207.28 17.6862 206.928 17.1178 C 206.575 16.5494 206.398 15.8977 206.398 15.1627 C 206.398 14.4375 206.57 13.7956 206.913 13.237 C 207.256 12.6686 207.721 12.2227 208.309 11.8993 C 208.907 11.5661 209.578 11.3995 210.323 11.3995 C 211.048 11.3995 211.69 11.5563 212.249 11.8699 C 212.817 12.1737 213.258 12.6 213.572 13.1488 C 213.895 13.6878 214.057 14.3052 214.057 15.001 C 214.057 15.148 214.047 15.2999 214.028 15.4567 C 214.018 15.6037 213.988 15.7752 213.939 15.9712 L 207.604 16.0006 L 207.604 14.3542 L 212.925 14.3101 L 211.779 15.0304 C 211.769 14.6286 211.71 14.3003 211.602 14.0455 C 211.494 13.7809 211.338 13.58 211.132 13.4428 C 210.926 13.3056 210.666 13.237 210.353 13.237 C 210.029 13.237 209.75 13.3154 209.515 13.4722 C 209.28 13.629 209.098 13.8495 208.971 14.1337 C 208.843 14.4179 208.78 14.7609 208.78 15.1627 C 208.78 15.5743 208.848 15.9271 208.986 16.2211 C 209.123 16.5053 209.319 16.7209 209.574 16.8679 C 209.828 17.0149 210.142 17.0884 210.514 17.0884 C 210.867 17.0884 211.176 17.0296 211.44 16.912 C 211.715 16.7944 211.96 16.6131 212.175 16.3681 L 213.513 17.7058 C 213.16 18.1076 212.729 18.4114 212.22 18.6172 C 211.72 18.823 211.151 18.9259 210.514 18.9259 Z M 220.05 18.7642 L 220.05 14.707 C 220.05 14.3738 219.952 14.1141 219.756 13.9279 C 219.56 13.7319 219.311 13.6339 219.007 13.6339 C 218.801 13.6339 218.615 13.678 218.448 13.7662 C 218.291 13.8544 218.169 13.9769 218.081 14.1337 C 217.992 14.2905 217.948 14.4816 217.948 14.707 L 216.949 14.2366 C 216.949 13.6584 217.076 13.1635 217.331 12.7519 C 217.586 12.3305 217.934 12.0071 218.375 11.7817 C 218.825 11.5465 219.335 11.4289 219.903 11.4289 C 220.423 11.4289 220.883 11.5514 221.285 11.7964 C 221.697 12.0316 222.02 12.3501 222.255 12.7519 C 222.491 13.1537 222.608 13.6094 222.608 14.119 L 222.608 18.7642 L 220.05 18.7642 Z M 215.391 18.7642 L 215.391 11.5759 L 217.948 11.5759 L 217.948 18.7642 L 215.391 18.7642 Z M 225.227 18.7642 L 225.227 8.60646 L 227.785 8.60646 L 227.785 18.7642 L 225.227 18.7642 Z M 223.639 13.7074 L 223.639 11.5759 L 229.372 11.5759 L 229.372 13.7074 L 223.639 13.7074 Z M 233.523 18.9112 C 232.856 18.9112 232.264 18.7495 231.744 18.4261 C 231.225 18.1027 230.818 17.6617 230.524 17.1031 C 230.23 16.5347 230.083 15.8928 230.083 15.1774 C 230.083 14.4522 230.23 13.8054 230.524 13.237 C 230.818 12.6686 231.225 12.2276 231.744 11.914 C 232.264 11.5906 232.856 11.4289 233.523 11.4289 C 233.974 11.4289 234.385 11.5122 234.758 11.6788 C 235.13 11.8356 235.434 12.061 235.669 12.355 C 235.914 12.649 236.061 12.9822 236.11 13.3546 L 236.11 16.9708 C 236.061 17.353 235.914 17.6911 235.669 17.9851 C 235.434 18.2693 235.13 18.4947 234.758 18.6613 C 234.385 18.8279 233.974 18.9112 233.523 18.9112 Z M 234.067 16.6327 C 234.488 16.6327 234.826 16.4955 235.081 16.2211 C 235.346 15.9467 235.478 15.5939 235.478 15.1627 C 235.478 14.8785 235.419 14.6286 235.302 14.413 C 235.184 14.1974 235.017 14.0259 234.802 13.8985 C 234.596 13.7711 234.356 13.7074 234.081 13.7074 C 233.807 13.7074 233.562 13.7711 233.346 13.8985 C 233.141 14.0259 232.974 14.2023 232.847 14.4277 C 232.729 14.6433 232.67 14.8883 232.67 15.1627 C 232.67 15.4469 232.729 15.7017 232.847 15.9271 C 232.964 16.1427 233.131 16.3142 233.346 16.4416 C 233.562 16.569 233.802 16.6327 234.067 16.6327 Z M 235.375 18.7642 L 235.375 16.8385 L 235.743 15.0745 L 235.375 13.3399 L 235.375 11.5759 L 237.889 11.5759 L 237.889 18.7642 L 235.375 18.7642 Z M 239.749 18.7642 L 239.749 8.04786 L 242.307 8.04786 L 242.307 18.7642 L 239.749 18.7642 Z M 252.493 18.9259 C 251.699 18.9259 250.964 18.7936 250.288 18.529 C 249.612 18.2546 249.019 17.8773 248.509 17.3971 C 248.009 16.9071 247.617 16.3338 247.333 15.6772 C 247.059 15.0206 246.922 14.3101 246.922 13.5457 C 246.922 12.7715 247.059 12.061 247.333 11.4142 C 247.617 10.7576 248.009 10.1892 248.509 9.70896 C 249.019 9.22876 249.607 8.85146 250.273 8.57706 C 250.949 8.30266 251.679 8.16546 252.463 8.16546 C 253.287 8.16546 254.027 8.29776 254.683 8.56236 C 255.34 8.81716 255.918 9.17486 256.418 9.63546 L 254.654 11.3995 C 254.409 11.1251 254.105 10.9095 253.742 10.7527 C 253.38 10.5959 252.953 10.5175 252.463 10.5175 C 252.042 10.5175 251.655 10.5861 251.302 10.7233 C 250.959 10.8605 250.66 11.0663 250.405 11.3407 C 250.151 11.6053 249.95 11.9238 249.803 12.2962 C 249.666 12.6686 249.597 13.0851 249.597 13.5457 C 249.597 14.0063 249.666 14.4228 249.803 14.7952 C 249.95 15.1676 250.151 15.491 250.405 15.7654 C 250.66 16.03 250.959 16.2358 251.302 16.3828 C 251.655 16.52 252.042 16.5886 252.463 16.5886 C 252.953 16.5886 253.385 16.5151 253.757 16.3681 C 254.129 16.2113 254.448 15.9908 254.713 15.7066 L 256.477 17.4706 C 255.967 17.9312 255.389 18.2889 254.742 18.5437 C 254.105 18.7985 253.355 18.9259 252.493 18.9259 Z M 257.805 18.7642 L 257.805 8.04786 L 260.363 8.04786 L 260.363 18.7642 L 257.805 18.7642 Z M 262.221 18.7642 L 262.221 11.5759 L 264.793 11.5759 L 264.793 18.7642 L 262.221 18.7642 Z M 263.499 10.738 C 263.117 10.738 262.799 10.6106 262.544 10.3558 C 262.289 10.0912 262.162 9.76286 262.162 9.37086 C 262.162 8.98866 262.289 8.66526 262.544 8.40066 C 262.799 8.13606 263.117 8.00376 263.499 8.00376 C 263.901 8.00376 264.225 8.13606 264.47 8.40066 C 264.724 8.66526 264.852 8.98866 264.852 9.37086 C 264.852 9.76286 264.724 10.0912 264.47 10.3558 C 264.225 10.6106 263.901 10.738 263.499 10.738 Z M 271.311 18.7642 L 271.311 14.707 C 271.311 14.3738 271.213 14.1141 271.017 13.9279 C 270.821 13.7319 270.571 13.6339 270.267 13.6339 C 270.061 13.6339 269.875 13.678 269.709 13.7662 C 269.552 13.8544 269.429 13.9769 269.341 14.1337 C 269.253 14.2905 269.209 14.4816 269.209 14.707 L 268.209 14.2366 C 268.209 13.6584 268.337 13.1635 268.591 12.7519 C 268.846 12.3305 269.194 12.0071 269.635 11.7817 C 270.086 11.5465 270.596 11.4289 271.164 11.4289 C 271.683 11.4289 272.144 11.5514 272.546 11.7964 C 272.957 12.0316 273.281 12.3501 273.516 12.7519 C 273.751 13.1537 273.869 13.6094 273.869 14.119 L 273.869 18.7642 L 271.311 18.7642 Z M 266.651 18.7642 L 266.651 11.5759 L 269.209 11.5759 L 269.209 18.7642 L 266.651 18.7642 Z M 275.574 18.7642 L 275.574 11.5759 L 278.147 11.5759 L 278.147 18.7642 L 275.574 18.7642 Z M 276.853 10.738 C 276.471 10.738 276.152 10.6106 275.897 10.3558 C 275.643 10.0912 275.515 9.76286 275.515 9.37086 C 275.515 8.98866 275.643 8.66526 275.897 8.40066 C 276.152 8.13606 276.471 8.00376 276.853 8.00376 C 277.255 8.00376 277.578 8.13606 277.823 8.40066 C 278.078 8.66526 278.205 8.98866 278.205 9.37086 C 278.205 9.76286 278.078 10.0912 277.823 10.3558 C 277.578 10.6106 277.255 10.738 276.853 10.738 Z M 283.562 18.9259 C 282.797 18.9259 282.107 18.7642 281.489 18.4408 C 280.882 18.1174 280.401 17.6715 280.049 17.1031 C 279.696 16.5347 279.519 15.8928 279.519 15.1774 C 279.519 14.4522 279.696 13.8054 280.049 13.237 C 280.411 12.6686 280.896 12.2227 281.504 11.8993 C 282.121 11.5661 282.817 11.3995 283.591 11.3995 C 284.15 11.3995 284.659 11.4926 285.12 11.6788 C 285.581 11.865 286.002 12.1443 286.384 12.5167 L 284.767 14.1337 C 284.62 13.9867 284.449 13.8789 284.253 13.8103 C 284.067 13.7319 283.846 13.6927 283.591 13.6927 C 283.317 13.6927 283.067 13.7564 282.842 13.8838 C 282.626 14.0014 282.45 14.168 282.312 14.3836 C 282.185 14.5992 282.121 14.8589 282.121 15.1627 C 282.121 15.4567 282.185 15.7164 282.312 15.9418 C 282.45 16.1574 282.626 16.3289 282.842 16.4563 C 283.067 16.5837 283.317 16.6474 283.591 16.6474 C 283.866 16.6474 284.101 16.6033 284.297 16.5151 C 284.493 16.4269 284.664 16.2995 284.811 16.1329 L 286.443 17.7499 C 286.041 18.1419 285.605 18.4359 285.135 18.6319 C 284.674 18.8279 284.15 18.9259 283.562 18.9259 Z" stroke-linecap="round" />
</g>
		<g transform="matrix(1 0 0 1 -17.51 12.18)"  >
<path style="stroke: none; stroke-width: 1; stroke-dasharray: none; stroke-linecap: butt; stroke-dashoffset: 0; stroke-linejoin: miter; stroke-miterlimit: 4; fill: rgb(54,54,54); fill-rule: nonzero; opacity: 1;" vector-effect="non-scaling-stroke"  transform=" translate(-126.49, -34.68)" d="M 60.6356 37.9156 C 59.8868 37.9156 59.2474 37.7684 58.7174 37.4739 C 58.1957 37.1794 57.7961 36.7672 57.5185 36.2371 C 57.2408 35.7071 57.102 35.0887 57.102 34.382 C 57.102 33.5911 57.2282 32.855 57.4806 32.1735 C 57.7414 31.492 58.1032 30.8989 58.5659 30.3941 C 59.0287 29.8809 59.5671 29.4854 60.1813 29.2078 C 60.8039 28.9217 61.4769 28.7787 62.2005 28.7787 C 63.2101 28.7787 63.9925 29.0227 64.5478 29.5107 C 65.1031 29.9902 65.3933 30.6633 65.4186 31.5299 L 64.2197 31.5299 C 64.2029 30.9662 64.0136 30.5245 63.6518 30.2048 C 63.29 29.8767 62.7558 29.7126 62.049 29.7126 C 61.5022 29.7126 60.9932 29.8304 60.522 30.066 C 60.0593 30.2931 59.6554 30.617 59.3105 31.0377 C 58.9656 31.45 58.6963 31.9337 58.5028 32.489 C 58.3093 33.0443 58.2126 33.6458 58.2126 34.2937 C 58.2126 35.1434 58.4397 35.8039 58.894 36.275 C 59.3484 36.7461 59.9794 36.9817 60.787 36.9817 C 61.4938 36.9817 62.0785 36.8219 62.5412 36.5022 C 63.0124 36.1825 63.3573 35.7492 63.5761 35.2023 L 64.775 35.2023 C 64.4468 36.0605 63.9252 36.7293 63.2101 37.2089 C 62.4949 37.68 61.6368 37.9156 60.6356 37.9156 Z M 65.7931 37.7642 L 66.8911 31.5046 L 67.8628 31.5046 L 67.7492 32.6152 C 68.0185 32.2282 68.3718 31.9211 68.8093 31.6939 C 69.2552 31.4668 69.76 31.3532 70.3237 31.3532 L 70.1344 32.4638 L 69.8442 32.4638 C 69.4656 32.4638 69.108 32.5227 68.7715 32.6404 C 68.4433 32.7582 68.1615 32.9601 67.9259 33.2462 C 67.6903 33.5238 67.5305 33.9066 67.4464 34.3946 L 66.8532 37.7642 L 65.7931 37.7642 Z M 72.9939 37.9156 C 72.2199 37.9156 71.5973 37.6758 71.1262 37.1963 C 70.6634 36.7167 70.4321 36.0731 70.4321 35.2654 C 70.4321 34.5419 70.5919 33.8856 70.9116 33.2967 C 71.2313 32.6993 71.6688 32.2282 72.2241 31.8832 C 72.7878 31.5299 73.4272 31.3532 74.1424 31.3532 C 74.6892 31.3532 75.1477 31.4626 75.5179 31.6813 C 75.8965 31.8917 76.1784 32.1777 76.3635 32.5395 C 76.557 32.9013 76.6537 33.3009 76.6537 33.7384 C 76.6537 33.9066 76.6327 34.1002 76.5906 34.3189 C 76.557 34.5292 76.5233 34.7143 76.4897 34.8742 L 71.4922 34.8742 C 71.4753 35.0172 71.4669 35.1434 71.4669 35.2528 C 71.4669 35.8501 71.6352 36.296 71.9717 36.5905 C 72.3082 36.8766 72.7037 37.0196 73.158 37.0196 C 73.5955 37.0196 73.9783 36.9186 74.3064 36.7167 C 74.6429 36.5064 74.9038 36.2329 75.0889 35.8964 L 76.1363 35.8964 C 75.8755 36.4769 75.4717 36.9607 74.9248 37.3477 C 74.3779 37.7263 73.7343 37.9156 72.9939 37.9156 Z M 74.0035 32.2492 C 73.4987 32.2492 73.0234 32.4049 72.5775 32.7162 C 72.1316 33.019 71.8245 33.4649 71.6562 34.0539 L 75.5937 34.0539 C 75.6021 34.0034 75.6063 33.9571 75.6063 33.9151 C 75.6147 33.8646 75.6189 33.8183 75.6189 33.7762 C 75.6189 33.2967 75.4717 32.9223 75.1772 32.6531 C 74.8827 32.3838 74.4915 32.2492 74.0035 32.2492 Z M 79.4094 37.9156 C 78.9383 37.9156 78.5555 37.8399 78.261 37.6884 C 77.9665 37.5286 77.7478 37.3225 77.6048 37.0701 C 77.4617 36.8092 77.3902 36.5316 77.3902 36.2371 C 77.3902 35.7744 77.5206 35.3748 77.7814 35.0382 C 78.0423 34.7017 78.404 34.4451 78.8668 34.2684 C 79.3379 34.0833 79.8848 33.9908 80.5074 33.9908 L 82.1858 33.9908 L 82.1984 33.9151 C 82.2237 33.772 82.2363 33.629 82.2363 33.486 C 82.2363 33.0821 82.1185 32.7751 81.8829 32.5647 C 81.6558 32.3544 81.3361 32.2492 80.9238 32.2492 C 80.52 32.2492 80.1456 32.3544 79.8006 32.5647 C 79.4557 32.7666 79.2159 33.0653 79.0813 33.4607 L 77.9834 33.4607 C 78.118 33.0064 78.3367 32.6236 78.6396 32.3123 C 78.9509 32.001 79.3169 31.7655 79.7375 31.6056 C 80.1582 31.4373 80.5999 31.3532 81.0626 31.3532 C 81.8114 31.3532 82.3709 31.5299 82.7411 31.8832 C 83.1197 32.2366 83.309 32.7162 83.309 33.3219 C 83.309 33.4145 83.3048 33.5112 83.2964 33.6122 C 83.288 33.7131 83.2754 33.8141 83.2585 33.9151 L 82.5897 37.7642 L 81.6305 37.7642 L 81.7567 36.6536 C 81.5212 37.007 81.2099 37.3056 80.8229 37.5496 C 80.4443 37.7936 79.9731 37.9156 79.4094 37.9156 Z M 79.7249 37.0196 C 80.1288 37.0196 80.4905 36.9144 80.8102 36.7041 C 81.1384 36.4937 81.4076 36.2203 81.6179 35.8838 C 81.8283 35.5472 81.9671 35.1939 82.0344 34.8237 L 82.0344 34.8111 L 80.4443 34.8111 C 79.8469 34.8111 79.3758 34.9289 79.0308 35.1644 C 78.6943 35.3916 78.526 35.7071 78.526 36.1109 C 78.526 36.397 78.627 36.6199 78.8289 36.7798 C 79.0392 36.9397 79.3379 37.0196 79.7249 37.0196 Z M 86.4522 37.7642 C 85.9306 37.7642 85.5267 37.6632 85.2407 37.4613 C 84.9546 37.2509 84.8116 36.8976 84.8116 36.4012 C 84.8116 36.3171 84.8158 36.2287 84.8242 36.1362 C 84.8326 36.0352 84.8452 35.9301 84.8621 35.8207 L 85.4678 32.4007 L 84.4961 32.4007 L 84.6601 31.5046 L 85.6319 31.5046 L 86.0357 30.0029 L 86.9696 30.0029 L 86.692 31.5046 L 88.5471 31.5046 L 88.383 32.4007 L 86.5405 32.4007 L 85.9221 35.8207 C 85.9053 35.9553 85.8969 36.0731 85.8969 36.174 C 85.8969 36.4349 85.9642 36.6157 86.0988 36.7167 C 86.2418 36.8092 86.469 36.8555 86.7803 36.8555 L 87.6006 36.8555 L 87.4365 37.7642 L 86.4522 37.7642 Z M 90.9842 30.1164 C 90.7739 30.1164 90.5972 30.0491 90.4542 29.9145 C 90.3196 29.7799 90.2523 29.6074 90.2523 29.3971 C 90.2523 29.1868 90.3196 29.0143 90.4542 28.8797 C 90.5972 28.7451 90.7739 28.6778 90.9842 28.6778 C 91.1862 28.6778 91.3586 28.7451 91.5017 28.8797 C 91.6447 29.0143 91.7162 29.1868 91.7162 29.3971 C 91.7162 29.6074 91.6447 29.7799 91.5017 29.9145 C 91.3586 30.0491 91.1862 30.1164 90.9842 30.1164 Z M 88.9777 37.7642 L 90.0756 31.5046 L 91.1357 31.5046 L 90.0377 37.7642 L 88.9777 37.7642 Z M 91.9082 37.7642 L 93.0061 31.5046 L 93.9652 31.5046 L 93.839 32.6404 C 94.1082 32.2366 94.4532 31.9211 94.8739 31.6939 C 95.2945 31.4668 95.7446 31.3532 96.2242 31.3532 C 96.8468 31.3532 97.339 31.5299 97.7007 31.8832 C 98.0625 32.2282 98.2434 32.7246 98.2434 33.3724 C 98.2434 33.4902 98.235 33.6122 98.2182 33.7384 C 98.2097 33.8562 98.1929 33.9782 98.1677 34.1044 L 97.5241 37.7642 L 96.464 37.7642 L 97.0824 34.2179 C 97.0992 34.1086 97.1118 34.0034 97.1202 33.9024 C 97.137 33.8015 97.1455 33.7047 97.1455 33.6122 C 97.1455 32.712 96.7038 32.2618 95.8204 32.2618 C 95.2903 32.2618 94.815 32.4469 94.3943 32.8171 C 93.982 33.1873 93.7044 33.7173 93.5614 34.4072 L 92.9682 37.7642 L 91.9082 37.7642 Z M 101.894 35.7954 C 101.523 35.7954 101.195 35.745 100.909 35.644 L 100.291 36.1236 C 100.476 36.2413 100.686 36.3339 100.922 36.4012 C 101.157 36.4685 101.502 36.519 101.957 36.5526 C 102.546 36.5947 103.004 36.6999 103.332 36.8681 C 103.669 37.0364 103.904 37.2467 104.039 37.4991 C 104.174 37.7431 104.241 37.9997 104.241 38.269 C 104.241 38.7317 104.106 39.1439 103.837 39.5057 C 103.568 39.8759 103.193 40.1662 102.714 40.3765 C 102.234 40.5868 101.683 40.692 101.061 40.692 C 100.295 40.692 99.6725 40.5364 99.193 40.2251 C 98.7134 39.9222 98.4736 39.4847 98.4736 38.9126 C 98.4736 38.5172 98.583 38.1554 98.8017 37.8273 C 99.0121 37.5076 99.3234 37.2215 99.7356 36.9691 C 99.4411 36.8345 99.2014 36.6662 99.0163 36.4643 L 99.0668 36.1614 L 100.24 35.2275 C 99.9123 34.9078 99.7482 34.4956 99.7482 33.9908 C 99.7482 33.4944 99.8786 33.0485 100.139 32.6531 C 100.4 32.2492 100.749 31.9337 101.187 31.7066 C 101.633 31.471 102.129 31.3532 102.676 31.3532 C 103.038 31.3532 103.358 31.4037 103.635 31.5046 L 105.945 31.5046 L 105.793 32.2871 L 104.62 32.3376 C 104.737 32.5815 104.796 32.855 104.796 33.1579 C 104.796 33.6542 104.666 34.1044 104.405 34.5082 C 104.153 34.9036 103.808 35.2191 103.37 35.4547 C 102.933 35.6819 102.441 35.7954 101.894 35.7954 Z M 102.045 34.9247 C 102.558 34.9247 102.975 34.7732 103.294 34.4703 C 103.623 34.159 103.787 33.7594 103.787 33.2714 C 103.787 32.9433 103.673 32.6867 103.446 32.5016 C 103.219 32.3165 102.912 32.224 102.525 32.224 C 102.011 32.224 101.591 32.3796 101.263 32.6909 C 100.943 32.9938 100.783 33.3892 100.783 33.8772 C 100.783 34.2137 100.892 34.4745 101.111 34.6596 C 101.338 34.8363 101.65 34.9247 102.045 34.9247 Z M 99.5463 38.7107 C 99.5463 39.0556 99.6935 39.3248 99.988 39.5183 C 100.282 39.7203 100.691 39.8212 101.212 39.8212 C 101.784 39.8212 102.255 39.6908 102.626 39.43 C 102.996 39.1692 103.181 38.8158 103.181 38.3699 C 103.181 38.1343 103.088 37.9282 102.903 37.7515 C 102.718 37.5664 102.352 37.4529 101.805 37.4108 C 101.351 37.3856 100.947 37.3309 100.594 37.2467 C 99.8955 37.6338 99.5463 38.1217 99.5463 38.7107 Z M 109.755 37.7642 L 111.307 28.9302 L 112.544 28.9302 L 114.639 35.0887 L 118.879 28.9302 L 120.129 28.9302 L 118.576 37.7642 L 117.516 37.7642 L 118.728 30.8232 L 114.79 36.5022 L 113.995 36.5022 L 112.039 30.8358 L 110.815 37.7642 L 109.755 37.7642 Z M 122.51 30.1164 C 122.299 30.1164 122.123 30.0491 121.98 29.9145 C 121.845 29.7799 121.778 29.6074 121.778 29.3971 C 121.778 29.1868 121.845 29.0143 121.98 28.8797 C 122.123 28.7451 122.299 28.6778 122.51 28.6778 C 122.712 28.6778 122.884 28.7451 123.027 28.8797 C 123.17 29.0143 123.242 29.1868 123.242 29.3971 C 123.242 29.6074 123.17 29.7799 123.027 29.9145 C 122.884 30.0491 122.712 30.1164 122.51 30.1164 Z M 120.503 37.7642 L 121.601 31.5046 L 122.661 31.5046 L 121.563 37.7642 L 120.503 37.7642 Z M 123.421 37.7642 L 125.036 28.6778 L 126.096 28.6778 L 124.481 37.7642 L 123.421 37.7642 Z M 129.02 37.9156 C 128.246 37.9156 127.623 37.6758 127.152 37.1963 C 126.689 36.7167 126.458 36.0731 126.458 35.2654 C 126.458 34.5419 126.618 33.8856 126.938 33.2967 C 127.257 32.6993 127.695 32.2282 128.25 31.8832 C 128.814 31.5299 129.453 31.3532 130.168 31.3532 C 130.715 31.3532 131.174 31.4626 131.544 31.6813 C 131.922 31.8917 132.204 32.1777 132.389 32.5395 C 132.583 32.9013 132.68 33.3009 132.68 33.7384 C 132.68 33.9066 132.659 34.1002 132.617 34.3189 C 132.583 34.5292 132.549 34.7143 132.516 34.8742 L 127.518 34.8742 C 127.501 35.0172 127.493 35.1434 127.493 35.2528 C 127.493 35.8501 127.661 36.296 127.998 36.5905 C 128.334 36.8766 128.73 37.0196 129.184 37.0196 C 129.621 37.0196 130.004 36.9186 130.332 36.7167 C 130.669 36.5064 130.93 36.2329 131.115 35.8964 L 132.162 35.8964 C 131.901 36.4769 131.498 36.9607 130.951 37.3477 C 130.404 37.7263 129.76 37.9156 129.02 37.9156 Z M 130.029 32.2492 C 129.525 32.2492 129.049 32.4049 128.603 32.7162 C 128.157 33.019 127.85 33.4649 127.682 34.0539 L 131.62 34.0539 C 131.628 34.0034 131.632 33.9571 131.632 33.9151 C 131.641 33.8646 131.645 33.8183 131.645 33.7762 C 131.645 33.2967 131.498 32.9223 131.203 32.6531 C 130.909 32.3838 130.517 32.2492 130.029 32.2492 Z M 135.827 37.9156 C 135.044 37.9156 134.434 37.7179 133.997 37.3225 C 133.559 36.9186 133.37 36.376 133.429 35.6945 L 134.501 35.6945 C 134.485 36.0478 134.59 36.3591 134.817 36.6284 C 135.044 36.8892 135.431 37.0196 135.978 37.0196 C 136.424 37.0196 136.781 36.9228 137.051 36.7293 C 137.32 36.5274 137.455 36.2498 137.455 35.8964 C 137.455 35.6188 137.328 35.4168 137.076 35.2906 C 136.832 35.1644 136.504 35.0593 136.092 34.9751 C 135.78 34.9078 135.477 34.8153 135.183 34.6975 C 134.888 34.5713 134.64 34.3988 134.438 34.1801 C 134.245 33.9613 134.148 33.6837 134.148 33.3472 C 134.148 32.9686 134.257 32.632 134.476 32.3376 C 134.695 32.0347 134.994 31.7949 135.372 31.6182 C 135.759 31.4415 136.197 31.3532 136.685 31.3532 C 137.349 31.3532 137.879 31.5215 138.275 31.858 C 138.679 32.1861 138.864 32.6573 138.83 33.2714 L 137.77 33.2714 C 137.787 32.9601 137.686 32.712 137.467 32.5269 C 137.257 32.3418 136.958 32.2492 136.571 32.2492 C 136.184 32.2492 135.864 32.3418 135.612 32.5269 C 135.368 32.7035 135.246 32.9223 135.246 33.1831 C 135.246 33.4355 135.364 33.6248 135.599 33.751 C 135.843 33.8772 136.167 33.9866 136.571 34.0791 C 136.916 34.1548 137.24 34.2558 137.543 34.382 C 137.846 34.5082 138.09 34.6807 138.275 34.8994 C 138.468 35.1182 138.565 35.4042 138.565 35.7576 C 138.565 36.1951 138.447 36.5779 138.212 36.906 C 137.976 37.2257 137.652 37.4739 137.24 37.6506 C 136.828 37.8273 136.357 37.9156 135.827 37.9156 Z M 146.4 37.9156 C 145.878 37.9156 145.415 37.7978 145.011 37.5622 C 144.608 37.3267 144.292 37.0028 144.065 36.5905 C 143.838 36.1782 143.724 35.7113 143.724 35.1897 C 143.724 34.6344 143.821 34.1254 144.014 33.6627 C 144.208 33.1999 144.473 32.7961 144.81 32.4511 C 145.146 32.1062 145.537 31.837 145.983 31.6435 C 146.429 31.45 146.913 31.3532 147.434 31.3532 C 147.956 31.3532 148.419 31.4668 148.823 31.6939 C 149.227 31.9211 149.542 32.2366 149.769 32.6404 C 149.996 33.0443 150.11 33.5112 150.11 34.0413 C 150.11 34.5881 150.013 35.0971 149.82 35.5683 C 149.635 36.0394 149.37 36.4517 149.025 36.805 C 148.688 37.15 148.297 37.4234 147.851 37.6253 C 147.405 37.8188 146.921 37.9156 146.4 37.9156 Z M 146.538 37.007 C 147.01 37.007 147.43 36.8808 147.8 36.6284 C 148.179 36.376 148.478 36.031 148.696 35.5935 C 148.915 35.156 149.025 34.6638 149.025 34.117 C 149.025 33.528 148.852 33.0737 148.507 32.754 C 148.171 32.4259 147.767 32.2618 147.296 32.2618 C 146.833 32.2618 146.416 32.388 146.046 32.6404 C 145.676 32.8928 145.382 33.2378 145.163 33.6753 C 144.944 34.1128 144.835 34.605 144.835 35.1518 C 144.835 35.5472 144.91 35.8838 145.062 36.1614 C 145.222 36.4306 145.432 36.641 145.693 36.7924 C 145.954 36.9354 146.236 37.007 146.538 37.007 Z M 151.319 37.7642 L 152.265 32.4007 L 151.331 32.4007 L 151.483 31.5046 L 152.417 31.5046 L 152.606 30.4193 C 152.715 29.8136 152.947 29.3719 153.3 29.0942 C 153.653 28.8166 154.124 28.6778 154.713 28.6778 L 155.332 28.6778 L 155.168 29.5864 L 154.713 29.5864 C 154.394 29.5864 154.154 29.6537 153.994 29.7883 C 153.834 29.9145 153.725 30.1333 153.666 30.4446 L 153.477 31.5046 L 155.029 31.5046 L 154.865 32.4007 L 153.325 32.4007 L 152.379 37.7642 L 151.319 37.7642 Z M 161.883 37.9156 C 161.302 37.9156 160.793 37.8231 160.356 37.638 C 159.927 37.4445 159.59 37.1752 159.346 36.8303 C 159.102 36.4853 158.98 36.0815 158.98 35.6188 C 158.98 35.543 158.985 35.4631 158.993 35.379 C 159.001 35.2864 159.014 35.1981 159.031 35.114 L 160.141 35.114 C 160.116 35.2317 160.104 35.3453 160.104 35.4547 C 160.104 35.909 160.272 36.2834 160.608 36.5779 C 160.953 36.8723 161.416 37.0196 161.997 37.0196 C 162.67 37.0196 163.183 36.8555 163.536 36.5274 C 163.89 36.1993 164.066 35.766 164.066 35.2275 C 164.066 34.9499 163.995 34.7227 163.852 34.5461 C 163.717 34.361 163.532 34.2095 163.296 34.0917 C 163.061 33.9655 162.796 33.8562 162.501 33.7636 C 162.215 33.6627 161.925 33.5575 161.631 33.4481 C 161.075 33.2462 160.659 32.9728 160.381 32.6278 C 160.112 32.2745 159.977 31.8748 159.977 31.4289 C 159.977 30.8989 160.108 30.4361 160.369 30.0407 C 160.629 29.6453 160.995 29.3382 161.467 29.1195 C 161.938 28.8923 162.485 28.7787 163.107 28.7787 C 163.604 28.7787 164.041 28.8671 164.42 29.0437 C 164.807 29.212 165.105 29.4518 165.316 29.7631 C 165.526 30.0744 165.631 30.4319 165.631 30.8358 C 165.631 30.962 165.619 31.0924 165.593 31.227 L 164.495 31.227 C 164.495 31.1849 164.495 31.1471 164.495 31.1134 C 164.504 31.0714 164.508 31.0293 164.508 30.9872 C 164.508 30.6591 164.378 30.3604 164.117 30.0912 C 163.864 29.822 163.477 29.6874 162.956 29.6874 C 162.4 29.6874 161.95 29.8388 161.605 30.1417 C 161.269 30.4361 161.101 30.8105 161.101 31.2649 C 161.101 31.5846 161.202 31.8412 161.403 32.0347 C 161.614 32.2198 161.891 32.3754 162.236 32.5016 C 162.581 32.6278 162.96 32.7666 163.372 32.9181 C 163.885 33.1116 164.319 33.385 164.672 33.7384 C 165.025 34.0833 165.202 34.5376 165.202 35.1013 C 165.202 35.665 165.063 36.1572 164.786 36.5779 C 164.508 36.9985 164.121 37.3267 163.625 37.5622 C 163.128 37.7978 162.548 37.9156 161.883 37.9156 Z M 166.272 37.7642 L 167.37 31.5046 L 168.317 31.5046 L 168.229 32.5269 C 168.473 32.1651 168.775 31.879 169.137 31.6687 C 169.499 31.4584 169.89 31.3532 170.311 31.3532 C 170.774 31.3532 171.173 31.4584 171.51 31.6687 C 171.846 31.879 172.078 32.1987 172.204 32.6278 C 172.473 32.2324 172.814 31.9211 173.226 31.6939 C 173.647 31.4668 174.076 31.3532 174.513 31.3532 C 174.976 31.3532 175.372 31.4542 175.7 31.6561 C 176.036 31.8496 176.276 32.1525 176.419 32.5647 C 176.57 32.9686 176.587 33.4818 176.469 34.1044 L 175.826 37.7642 L 174.766 37.7642 L 175.384 34.2179 C 175.502 33.5701 175.456 33.0821 175.245 32.754 C 175.043 32.4259 174.715 32.2618 174.261 32.2618 C 173.815 32.2618 173.399 32.4385 173.012 32.7919 C 172.625 33.1368 172.351 33.6374 172.191 34.2937 L 171.573 37.7642 L 170.525 37.7642 L 171.144 34.2179 C 171.253 33.5701 171.203 33.0821 170.992 32.754 C 170.79 32.4259 170.462 32.2618 170.008 32.2618 C 169.545 32.2618 169.108 32.4596 168.696 32.855 C 168.292 33.242 168.027 33.7973 167.9 34.5208 L 167.333 37.7642 L 166.272 37.7642 Z M 179.558 30.1164 C 179.348 30.1164 179.171 30.0491 179.028 29.9145 C 178.894 29.7799 178.826 29.6074 178.826 29.3971 C 178.826 29.1868 178.894 29.0143 179.028 28.8797 C 179.171 28.7451 179.348 28.6778 179.558 28.6778 C 179.76 28.6778 179.933 28.7451 180.076 28.8797 C 180.219 29.0143 180.29 29.1868 180.29 29.3971 C 180.29 29.6074 180.219 29.7799 180.076 29.9145 C 179.933 30.0491 179.76 30.1164 179.558 30.1164 Z M 177.552 37.7642 L 178.65 31.5046 L 179.71 31.5046 L 178.612 37.7642 L 177.552 37.7642 Z M 180.47 37.7642 L 182.085 28.6778 L 183.145 28.6778 L 181.53 37.7642 L 180.47 37.7642 Z M 186.069 37.9156 C 185.295 37.9156 184.672 37.6758 184.201 37.1963 C 183.738 36.7167 183.507 36.0731 183.507 35.2654 C 183.507 34.5419 183.667 33.8856 183.986 33.2967 C 184.306 32.6993 184.744 32.2282 185.299 31.8832 C 185.863 31.5299 186.502 31.3532 187.217 31.3532 C 187.764 31.3532 188.222 31.4626 188.593 31.6813 C 188.971 31.8917 189.253 32.1777 189.438 32.5395 C 189.632 32.9013 189.728 33.3009 189.728 33.7384 C 189.728 33.9066 189.707 34.1002 189.665 34.3189 C 189.632 34.5292 189.598 34.7143 189.564 34.8742 L 184.567 34.8742 C 184.55 35.0172 184.542 35.1434 184.542 35.2528 C 184.542 35.8501 184.71 36.296 185.046 36.5905 C 185.383 36.8766 185.778 37.0196 186.233 37.0196 C 186.67 37.0196 187.053 36.9186 187.381 36.7167 C 187.718 36.5064 187.978 36.2329 188.164 35.8964 L 189.211 35.8964 C 188.95 36.4769 188.546 36.9607 187.999 37.3477 C 187.453 37.7263 186.809 37.9156 186.069 37.9156 Z M 187.078 32.2492 C 186.573 32.2492 186.098 32.4049 185.652 32.7162 C 185.206 33.019 184.899 33.4649 184.731 34.0539 L 188.668 34.0539 C 188.677 34.0034 188.681 33.9571 188.681 33.9151 C 188.689 33.8646 188.694 33.8183 188.694 33.7762 C 188.694 33.2967 188.546 32.9223 188.252 32.6531 C 187.957 32.3838 187.566 32.2492 187.078 32.2492 Z M 192.875 37.9156 C 192.093 37.9156 191.483 37.7179 191.045 37.3225 C 190.608 36.9186 190.419 36.376 190.478 35.6945 L 191.55 35.6945 C 191.533 36.0478 191.639 36.3591 191.866 36.6284 C 192.093 36.8892 192.48 37.0196 193.027 37.0196 C 193.473 37.0196 193.83 36.9228 194.099 36.7293 C 194.369 36.5274 194.503 36.2498 194.503 35.8964 C 194.503 35.6188 194.377 35.4168 194.125 35.2906 C 193.881 35.1644 193.553 35.0593 193.14 34.9751 C 192.829 34.9078 192.526 34.8153 192.232 34.6975 C 191.937 34.5713 191.689 34.3988 191.487 34.1801 C 191.294 33.9613 191.197 33.6837 191.197 33.3472 C 191.197 32.9686 191.306 32.632 191.525 32.3376 C 191.744 32.0347 192.042 31.7949 192.421 31.6182 C 192.808 31.4415 193.246 31.3532 193.734 31.3532 C 194.398 31.3532 194.928 31.5215 195.324 31.858 C 195.727 32.1861 195.913 32.6573 195.879 33.2714 L 194.819 33.2714 C 194.836 32.9601 194.735 32.712 194.516 32.5269 C 194.306 32.3418 194.007 32.2492 193.62 32.2492 C 193.233 32.2492 192.913 32.3418 192.661 32.5269 C 192.417 32.7035 192.295 32.9223 192.295 33.1831 C 192.295 33.4355 192.413 33.6248 192.648 33.751 C 192.892 33.8772 193.216 33.9866 193.62 34.0791 C 193.965 34.1548 194.289 34.2558 194.592 34.382 C 194.895 34.5082 195.139 34.6807 195.324 34.8994 C 195.517 35.1182 195.614 35.4042 195.614 35.7576 C 195.614 36.1951 195.496 36.5779 195.261 36.906 C 195.025 37.2257 194.701 37.4739 194.289 37.6506 C 193.877 37.8273 193.405 37.9156 192.875 37.9156 Z" stroke-linecap="round" />
</g>
</g>
</g>
</svg>